<svg width="102" height="24" viewBox="0 0 102 24" fill="none" xmlns="http://www.w3.org/2000/svg">
<path d="M16.4 4.76C16.4 4.92 16.36 5.03 16.28 5.09C16.2 5.13 16.09 5.15 15.95 5.15H15.86C15.14 5.11 14.24 5.06 13.16 5C12.08 4.94 10.9 4.91 9.62 4.91C9.02 4.91 8.47 4.99 7.97 5.15C7.49 5.31 7.08 5.59 6.74 5.99C6.4 6.37 6.14 6.89 5.96 7.55C5.78 8.21 5.69 9.03 5.69 10.01V13.76C5.69 14.8 5.79 15.65 5.99 16.31C6.21 16.97 6.48 17.49 6.8 17.87C7.14 18.25 7.51 18.51 7.91 18.65C8.31 18.79 8.69 18.86 9.05 18.86C9.87 18.86 10.64 18.83 11.36 18.77V11.87C11.36 11.71 11.41 11.57 11.51 11.45C11.63 11.33 11.77 11.27 11.93 11.27H15.77C15.93 11.27 16.07 11.33 16.19 11.45C16.31 11.57 16.37 11.71 16.37 11.87V21.95C16.37 22.33 16.17 22.56 15.77 22.64C14.95 22.8 14 22.94 12.92 23.06C11.84 23.2 10.55 23.27 9.05 23.27C8.49 23.27 7.88 23.21 7.22 23.09C6.58 22.97 5.94 22.77 5.3 22.49C4.68 22.21 4.08 21.83 3.5 21.35C2.92 20.87 2.4 20.28 1.94 19.58C1.5 18.88 1.15 18.05 0.89 17.09C0.63 16.11 0.5 14.99 0.5 13.73V10.01C0.5 8.09 0.77 6.52 1.31 5.3C1.85 4.06 2.55 3.08 3.41 2.36C4.29 1.64 5.27 1.14 6.35 0.859999C7.45 0.579999 8.54 0.439999 9.62 0.439999C11.12 0.439999 12.4 0.529999 13.46 0.709999C14.52 0.869999 15.33 1.01 15.89 1.13C16.23 1.19 16.4 1.34 16.4 1.58V4.76ZM25.5659 22.4C25.5659 22.56 25.5059 22.7 25.3859 22.82C25.2859 22.94 25.1559 23 24.9959 23H20.9759C20.8159 23 20.6859 22.94 20.5859 22.82C20.4859 22.7 20.4359 22.56 20.4359 22.4V1.28C20.4359 0.899999 20.6159 0.709999 20.9759 0.709999H24.9959C25.3759 0.709999 25.5659 0.899999 25.5659 1.28V22.4ZM44.0323 16.7C44.0323 17.5 43.8923 18.29 43.6123 19.07C43.3323 19.85 42.8623 20.55 42.2023 21.17C41.5623 21.79 40.7223 22.3 39.6823 22.7C38.6423 23.08 37.3623 23.27 35.8423 23.27C34.6423 23.27 33.5823 23.21 32.6623 23.09C31.7623 22.97 30.9323 22.81 30.1723 22.61C30.0123 22.57 29.8723 22.5 29.7523 22.4C29.6323 22.3 29.5723 22.17 29.5723 22.01V19.07C29.5723 18.85 29.6223 18.7 29.7223 18.62C29.8223 18.54 29.9523 18.5 30.1123 18.5H30.2023C30.5023 18.54 30.9123 18.58 31.4323 18.62C31.9723 18.66 32.5223 18.7 33.0823 18.74C33.6423 18.76 34.1723 18.79 34.6723 18.83C35.1923 18.85 35.6023 18.86 35.9023 18.86C36.9423 18.86 37.6423 18.69 38.0023 18.35C38.3823 18.01 38.5723 17.48 38.5723 16.76C38.5723 16.32 38.4323 15.95 38.1523 15.65C37.8923 15.33 37.3723 14.94 36.5923 14.48L32.4523 12.02C31.7523 11.6 31.1723 11.17 30.7123 10.73C30.2723 10.29 29.9123 9.83 29.6323 9.35C29.3723 8.87 29.1823 8.38 29.0623 7.88C28.9623 7.36 28.9123 6.83 28.9123 6.29C28.9123 5.47 29.0323 4.71 29.2723 4.01C29.5323 3.29 29.9623 2.67 30.5623 2.15C31.1623 1.61 31.9523 1.19 32.9323 0.889999C33.9123 0.589999 35.1323 0.439999 36.5923 0.439999C37.1323 0.439999 37.7123 0.459999 38.3323 0.499998C38.9723 0.539999 39.5823 0.589999 40.1623 0.649998C40.7423 0.709998 41.2823 0.779999 41.7823 0.859999C42.2823 0.939999 42.6723 1.02 42.9523 1.1C43.0723 1.14 43.1723 1.2 43.2523 1.28C43.3523 1.36 43.4023 1.48 43.4023 1.64V4.67C43.4023 4.81 43.3623 4.93 43.2823 5.03C43.2223 5.13 43.0923 5.18 42.8923 5.18H42.8323C42.6123 5.16 42.2523 5.14 41.7523 5.12C41.2723 5.08 40.7223 5.04 40.1023 5C39.4823 4.96 38.8423 4.93 38.1823 4.91C37.5423 4.87 36.9723 4.85 36.4723 4.85C35.6123 4.85 35.0023 4.98 34.6423 5.24C34.3023 5.5 34.1323 5.9 34.1323 6.44C34.1323 6.66 34.1623 6.85 34.2223 7.01C34.2823 7.17 34.3823 7.33 34.5223 7.49C34.6823 7.63 34.8923 7.79 35.1523 7.97C35.4123 8.13 35.7423 8.32 36.1423 8.54L39.9823 10.61C41.5423 11.45 42.6023 12.37 43.1623 13.37C43.7423 14.37 44.0323 15.48 44.0323 16.7ZM63.6003 1.16C63.6003 1.26 63.5903 1.33 63.5703 1.37L59.0403 11.75C58.7403 12.45 58.4303 12.97 58.1103 13.31C57.7903 13.65 57.4503 13.9 57.0903 14.06V22.4C57.0903 22.56 57.0303 22.7 56.9103 22.82C56.7903 22.94 56.6503 23 56.4903 23H52.5603C52.4003 23 52.2603 22.94 52.1403 22.82C52.0203 22.7 51.9603 22.56 51.9603 22.4V14.06C51.6003 13.9 51.2503 13.65 50.9103 13.31C50.5903 12.97 50.2803 12.45 49.9803 11.75L45.4503 1.37C45.4303 1.33 45.4203 1.26 45.4203 1.16C45.4203 1.04 45.4603 0.939999 45.5403 0.859999C45.6203 0.759999 45.7403 0.709999 45.9003 0.709999H50.2203C50.3803 0.709999 50.5103 0.759999 50.6103 0.859999C50.7103 0.959999 50.7803 1.08 50.8203 1.22L54.0603 9.68C54.1403 9.88 54.2103 10.01 54.2703 10.07C54.3303 10.11 54.4103 10.13 54.5103 10.13C54.6103 10.13 54.6903 10.11 54.7503 10.07C54.8103 10.01 54.8803 9.88 54.9603 9.68L58.2003 1.22C58.2403 1.08 58.3103 0.959999 58.4103 0.859999C58.5103 0.759999 58.6403 0.709999 58.8003 0.709999H63.1203C63.2803 0.709999 63.4003 0.759999 63.4803 0.859999C63.5603 0.939999 63.6003 1.04 63.6003 1.16ZM83.8041 1.04C83.8041 1.16 83.7541 1.3 83.6541 1.46L76.5141 11.6L83.6841 22.37C83.7641 22.47 83.8041 22.58 83.8041 22.7C83.8041 22.9 83.6641 23 83.3841 23H78.2241C78.0441 23 77.9041 22.96 77.8041 22.88C77.7241 22.8 77.6441 22.7 77.5641 22.58L71.4741 12.68V22.4C71.4741 22.56 71.4141 22.7 71.2941 22.82C71.1741 22.94 71.0341 23 70.8741 23H66.9441C66.7841 23 66.6441 22.94 66.5241 22.82C66.4041 22.7 66.3441 22.56 66.3441 22.4V1.28C66.3441 1.12 66.4041 0.989998 66.5241 0.889999C66.6441 0.769999 66.7841 0.709999 66.9441 0.709999H70.8741C71.0341 0.709999 71.1741 0.769999 71.2941 0.889999C71.4141 0.989998 71.4741 1.12 71.4741 1.28V10.82L78.0741 1.07C78.2141 0.829999 78.4341 0.709999 78.7341 0.709999H83.3241C83.6441 0.709999 83.8041 0.819999 83.8041 1.04ZM101.26 4.37C101.26 4.53 101.19 4.67 101.05 4.79C100.93 4.89 100.79 4.94 100.63 4.94H95.7704V22.4C95.7704 22.56 95.7104 22.7 95.5904 22.82C95.4704 22.94 95.3304 23 95.1704 23H91.2404C91.0804 23 90.9404 22.94 90.8204 22.82C90.7004 22.7 90.6404 22.56 90.6404 22.4V4.94H85.7504C85.5904 4.94 85.4504 4.89 85.3304 4.79C85.2104 4.67 85.1504 4.53 85.1504 4.37V1.28C85.1504 1.12 85.2104 0.989998 85.3304 0.889999C85.4504 0.769999 85.5904 0.709999 85.7504 0.709999H100.63C100.79 0.709999 100.93 0.769999 101.05 0.889999C101.19 0.989998 101.26 1.12 101.26 1.28V4.37Z" fill="white"/>
</svg>
