<svg width="785" height="901" viewBox="0 0 785 901" fill="none" xmlns="http://www.w3.org/2000/svg">
<path d="M528.813 561.578C537.775 583.374 586.317 558.65 584.627 527.045C609.32 542.03 600.896 616.111 566.056 642.287C557.427 644.841 569.282 681.91 576.452 675.099C573.166 658.752 595.016 637.329 606.329 631.433C599.757 658.679 621.622 678.321 622.999 695.486C626.584 740.168 573.58 768.187 554.461 783.717C557.747 788.893 580.471 777.555 603.772 778.917C577.81 795.966 533.329 858.33 488.388 879.557C406.894 912.713 362.765 911.395 286.065 880.112C231.025 863.086 184.913 808.529 177.314 787.393C289.041 830.441 122.791 761.467 145.794 700.165C199.284 759.385 204.15 726.567 162.734 682.118C144.041 665.741 165.246 647.315 165.246 639.414C166.889 677.083 184.078 677.228 199.859 665.689C203.417 662.734 203.544 637.411 184.623 606.566C176.856 587.767 176.97 558.474 188.677 544.424C189.482 568.974 198.155 577.84 212.405 582.59C239.59 585.86 260.273 559.74 249.518 527.045C244.053 518.174 242.205 518.615 227.241 518.022C188.677 516.492 184.623 503.985 168.231 489.28C194.481 500.309 195.49 502.266 221.666 498.13C234.731 494.65 220.274 486.896 194.481 473.064C167.629 461.283 152.505 443.754 140.635 436.066C76.0708 428.404 92.3717 420.424 83.1026 389.778C102.919 410.528 94.2895 414.997 115.914 412.579C110.252 395.918 89.4302 393.362 87.236 371.983C90.1632 357.936 92.066 331.567 66.1624 320.762C36.1177 308.229 47.3045 271.025 31.0741 250.469C50.8204 266.544 49.1577 269.647 55.2952 293.052C49.8615 244.747 68.5459 216.211 94.1069 158.652C74.1531 246.763 61.1059 260.084 75.112 292.699C89.118 325.315 93.382 316.494 105.111 329.863L120.871 351.004C121.754 334.308 125.487 330.494 119.22 309.651C145.19 333.84 125.852 337.893 145.19 382.613C155.975 397.514 197.135 413.888 212.405 418.428C197.186 399.712 172.63 373.978 170.62 339.289C179.398 371.983 250.411 425.061 260.227 430.459C270.123 435.138 271.956 436.141 284.784 437.944C306.775 440.15 300.132 442.63 312.594 382.613C317.458 359.185 312.594 353.729 288.941 333.567C265.289 313.406 257.059 308.229 234.285 303.325C194.048 289.286 191.322 282.071 197.186 266.544C199.019 287.795 217.711 286.082 256.929 287.795C253.176 279.6 233.849 275.027 212.405 266.544C187.39 259.336 179.306 254.648 178.947 244.747C201.18 261.69 215.921 247.582 187.909 230.483C186.34 229.525 156.305 214.175 135.631 215.05C153.759 206.817 165.509 210.759 178.947 218.319V212.325C180.247 197.517 149.093 175.793 149.093 169.109C151.331 122.015 168.247 117.042 193.585 79.0954C175.115 122.416 163.387 143.939 172.916 168.106C182.079 179.743 181.547 153.23 195.611 165.36C182.186 171.106 184.867 175.528 187.909 186.442L207.626 212.325C214.944 196.982 207.626 190.898 228.532 188.345C220.222 197.283 219.242 205.754 222.459 215.05C224.962 225.375 227.594 233.987 237.798 244.747L272.75 266.544L324.739 302.309C330.812 304.225 329.796 299.117 330.173 292.094C331.132 274.217 287.024 276.362 298.142 257.28C307.799 270.067 315.79 256.66 333.369 270.067C338.695 263.912 337.448 261.026 336.977 244.747C325.917 233.997 317.586 229.904 298.142 226.765C269.547 217.048 261.998 207.805 252.734 189.439C250.835 170.61 250.032 159.987 237.2 143.939C224.433 131.939 219.431 124.061 213.302 108.52C217.998 109.62 221.666 110.957 224.962 115.636C227.116 110.898 227.271 107.637 221.666 98.4396C218.01 85.4791 233.223 62.7181 252.734 28.9638L241.98 71.4666C238.058 96.9168 242.108 106.913 252.734 122.416C259.652 140.263 264.251 141.674 272.75 140.67C280.781 133.575 276.391 120.606 272.75 101.709C294.967 126.665 278.107 154.07 317.261 186.442C323.94 189.029 328.446 188.57 336.977 186.488C355.211 184.194 360.914 166.794 357.98 135.353C354.089 121.343 350.949 130.834 340.081 119.391C335.607 113.309 349.263 101.709 340.081 81.4032C355.743 93.5339 345.195 104.707 351.588 108.857C358.3 108.857 358.939 112.688 371.724 103.43C413.716 68.2282 341.594 59.4889 388.508 0C381.178 63.1652 436.691 23.3063 440.124 108.857C450.52 98.9545 447.795 97.3646 461.539 93.5339C475.283 89.7031 461.859 60.6534 475.283 49.7996C468.648 81.084 489.027 88.4262 464.416 106.303C447.475 113.964 453.668 135.353 443.32 144.93C434.69 161.21 439.966 175.421 453.668 186.488C460.009 189.035 462.789 190.893 476.392 181.14C475.283 162.739 475.753 134.714 495.739 137.587C478.479 147.209 489.819 155.18 492.916 166.826C494.214 156.193 495.776 149.499 500.853 144.93C512.571 135.818 508.86 140.424 513.958 126.734C516.911 115.941 529.23 113.245 539.22 103.43C546.764 94.8341 535.829 68.2923 535.053 39.9035C538.037 59.1718 546.286 63.5943 552.632 78.8494C555.305 85.2744 563.032 106.303 553.271 119.391C539.477 137.888 525.534 149.695 524.186 173.66C542.833 173.007 561.325 168.233 551.169 135.353C575.461 160.891 561.556 176.087 531.441 193.254C520.052 196.861 516.383 199.802 512.035 205.786C497.15 226.135 482.922 232.857 456.425 244.747C456.944 260.301 458.817 268.062 466.402 280.439C484.234 260.407 500.533 280.128 500.533 262.725C508.519 276.095 479.294 282.764 471.627 298.148C471.541 301.66 471.978 303.337 474.004 305.501C484.915 310.034 500.063 298.68 520.997 287.795L534.44 271.448C541.266 255.101 544.497 241.874 550.062 216.412C553.567 234.541 552.357 241.013 547.883 255.101C555.435 239.288 560.538 232.594 572.08 226.765C586.036 219.609 588.371 212.413 591.498 198.975C594.404 186.488 596.3 179.502 599.937 167.595C604.731 158.652 606.032 158.94 614.32 150.995C626.355 137.519 618.798 119.066 617.488 95.1701C627.776 117.185 631.843 130.404 630.035 158.652L617.488 186.442C631.58 179.406 638.612 181.14 666.099 191.537C634.456 186.11 620.116 193.278 609.123 216.412C609.692 235.48 608.911 244.472 601.356 251.014C594.688 255.123 591.035 256.375 584.627 257.28C572.718 262.773 569.676 267.789 567.622 278.532C591.498 271.448 637.653 271.448 643.725 291.775C617.836 280.439 596.735 279.975 565.737 298.148L518.01 323.487C501.538 335.982 474.367 364.9 476.392 382.613L489.667 430.793C495.165 442.157 505.366 439.292 512.035 435.737C549.196 410.725 561.978 390.584 584.627 354.546C578.759 379.869 579.306 392.264 551.609 427.836C545.625 433.133 553.348 430.64 572.08 423.75C588.936 400.087 597.846 394.665 613.604 386.968L652.141 373.891L659.405 363.733C683.373 325.17 685.331 300.457 692.171 257.28C698.274 281.02 697.307 295.239 692.171 321.307C706.01 311.629 713.606 300.906 726.825 271.448C735.395 256.194 730.469 222.916 716.175 186.442L716.506 186.757C733.837 203.233 755.298 223.635 746.163 278.532C764.509 261.46 768.385 249.994 777.75 230.269C771.674 251.238 768.502 266.41 750.8 286.667C740.311 295.584 740.892 294.009 736.933 304.129C724.91 350.918 712.282 358.246 693.587 371.262C713.86 377.019 715.322 373.891 746.163 366.626C726.825 393.928 704.121 389.513 680.521 400.863C647.697 408.367 630.911 414.262 613.604 437.944L605.537 446.908C627.592 449.846 641.161 445.961 668.081 442.157C628.497 463.546 618.638 447.225 590.093 463.546L578.731 468.225C566.556 472.904 549.489 488.924 542.812 500.643C566.945 500.484 569.201 507.995 609.123 486.142C586.044 505.444 580.881 517.261 533.649 524.037C524.853 525.708 524.778 541.248 528.813 561.578Z" fill="url(#paint0_linear_140_3)"/>
<path d="M158.938 614.834C154.786 628.653 156.211 632.608 155.353 635.813C150.313 628.899 148.047 624.474 145.794 614.834C151.047 605.287 147.102 598.122 141.612 585.681C150.769 593.816 161.507 598.38 158.938 614.834Z" fill="url(#paint1_linear_140_3)"/>
<path d="M632.857 576.366C626.345 579.505 623.04 583.215 622.999 592.168C634.526 601.146 628.37 605.864 619.135 627.726C627.321 612.975 638.666 611.416 643.014 604.701C647.184 596.3 643.665 593.36 630.468 590.261C626.2 586.324 627.594 583.033 632.857 576.366Z" fill="url(#paint2_linear_140_3)"/>
<path d="M591.498 333.567C594.166 339.065 593.976 341.901 591.498 346.645L600.759 340.379C604.013 338.033 605.844 336.085 609.123 331.115C612.946 320.931 612.046 315.33 605.537 305.505C606.094 314.32 605.915 318.612 601.655 321.034C593.061 322.877 593.091 325.096 591.498 333.567Z" fill="url(#paint3_linear_140_3)"/>
<path d="M159.231 323.214C160.7 329.035 162.934 331.201 168.492 333.84C170.972 331.812 171.462 330.033 170.62 325.666C169.563 322.388 168.072 321.498 164.608 320.762C161.675 317.333 161.856 313.99 161.919 308.229C160.127 312.262 159.024 314.283 159.231 323.214Z" fill="url(#paint4_linear_140_3)"/>
<path d="M3.95185 233.577C15.818 234.938 20.3587 237.554 25.5764 244.747C28.0965 238.795 26.3694 235.542 16.0469 229.935C4.88488 226.151 4.54973 221.184 3.95206 212.328L3.95185 212.325C0.475819 220.457 -2.85354 224.95 3.95185 233.577Z" fill="url(#paint5_linear_140_3)"/>
<path d="M603.574 74.8625C612.686 78.9262 616.311 82.0779 617.488 90.8109C623.176 87.4381 623.444 84.0794 617.488 74.8625C605.848 68.6465 607.012 63.3711 609.048 54.148L609.123 53.8074C603.22 60.0547 597.926 62.5087 603.574 74.8625Z" fill="url(#paint6_linear_140_3)"/>
<path d="M176.914 55.8126C178.833 66.6694 181.697 66.6223 187.255 70.852C192.018 69.9986 191.876 70.294 194.507 63.1652C196.011 57.4832 191.574 54.81 187.909 53.8074C181.904 52.1647 180.579 54.4758 184.977 40.7733C177.723 47.6423 178.746 50.7995 176.914 55.8126Z" fill="url(#paint7_linear_140_3)"/>
<path d="M759.71 350.918C761.921 353.226 749.081 353.926 747.249 366.626C758.977 358.27 767.041 359.607 775.837 353.926C781.701 351.586 774.56 345.923 785 339.221C774.005 341.56 774.005 346.573 762.642 343.9C759.463 344.589 758.733 346.041 759.71 350.918Z" fill="url(#paint8_linear_140_3)"/>
<path d="M340 578.482L363.694 569.553C353.015 570.502 345.772 570.467 345.772 564.376C347.29 557.371 367.673 565.187 367.946 543.665C367.402 528.196 344.802 529.492 344.802 523.946C344.802 518.399 357.515 521.518 357.515 521.518C348.774 517.948 341.441 516.558 341.441 512.843V346H343.459L360.179 365.663L352.107 373.759L359.314 378.386H365.367L370.268 373.759L362.773 365.663L375.745 346H382.663L394.77 365.663L386.987 373.759L391.311 378.386H401.401L406.589 372.602L398.518 364.506L412.066 346H418.985L430.804 364.506L423.02 372.602L428.497 378.386H435.128L440.893 372.602L433.11 364.506L449.253 346H452.135V511.976C452.135 516.313 441.469 518.916 436.569 521.518C439.331 521.127 445.662 519.405 446.621 522.65C449.051 530.873 423.839 526 425.054 545.188C426.269 564.376 446.348 557.1 446.925 563.462C447.422 568.944 441.264 569.951 428.786 567.783L453 578.482V826H340V578.482Z" fill="black"/>
<defs>
<linearGradient id="paint0_linear_140_3" x1="392.498" y1="-30.6459" x2="439.727" y2="1398.22" gradientUnits="userSpaceOnUse">
<stop stop-color="#FCAA10"/>
<stop offset="0.558349" stop-color="#F04D24"/>
</linearGradient>
<linearGradient id="paint1_linear_140_3" x1="392.498" y1="-30.6459" x2="439.727" y2="1398.22" gradientUnits="userSpaceOnUse">
<stop stop-color="#FCAA10"/>
<stop offset="0.558349" stop-color="#F04D24"/>
</linearGradient>
<linearGradient id="paint2_linear_140_3" x1="392.498" y1="-30.6459" x2="439.727" y2="1398.22" gradientUnits="userSpaceOnUse">
<stop stop-color="#FCAA10"/>
<stop offset="0.558349" stop-color="#F04D24"/>
</linearGradient>
<linearGradient id="paint3_linear_140_3" x1="392.498" y1="-30.6459" x2="439.727" y2="1398.22" gradientUnits="userSpaceOnUse">
<stop stop-color="#FCAA10"/>
<stop offset="0.558349" stop-color="#F04D24"/>
</linearGradient>
<linearGradient id="paint4_linear_140_3" x1="392.498" y1="-30.6459" x2="439.727" y2="1398.22" gradientUnits="userSpaceOnUse">
<stop stop-color="#FCAA10"/>
<stop offset="0.558349" stop-color="#F04D24"/>
</linearGradient>
<linearGradient id="paint5_linear_140_3" x1="392.498" y1="-30.6459" x2="439.727" y2="1398.22" gradientUnits="userSpaceOnUse">
<stop stop-color="#FCAA10"/>
<stop offset="0.558349" stop-color="#F04D24"/>
</linearGradient>
<linearGradient id="paint6_linear_140_3" x1="392.498" y1="-30.6459" x2="439.727" y2="1398.22" gradientUnits="userSpaceOnUse">
<stop stop-color="#FCAA10"/>
<stop offset="0.558349" stop-color="#F04D24"/>
</linearGradient>
<linearGradient id="paint7_linear_140_3" x1="392.498" y1="-30.6459" x2="439.727" y2="1398.22" gradientUnits="userSpaceOnUse">
<stop stop-color="#FCAA10"/>
<stop offset="0.558349" stop-color="#F04D24"/>
</linearGradient>
<linearGradient id="paint8_linear_140_3" x1="392.498" y1="-30.6459" x2="439.727" y2="1398.22" gradientUnits="userSpaceOnUse">
<stop stop-color="#FCAA10"/>
<stop offset="0.558349" stop-color="#F04D24"/>
</linearGradient>
</defs>
</svg>
