<svg width="1440" height="74" viewBox="0 0 1440 74" fill="none" xmlns="http://www.w3.org/2000/svg">
<rect width="1440" height="74" fill="black"/>
<path d="M154.6 48.845C154.6 49.3117 154.378 49.5917 153.935 49.685C153.048 49.8717 152.01 50.0117 150.82 50.105C149.63 50.2217 148.125 50.28 146.305 50.28C145.348 50.28 144.322 50.105 143.225 49.755C142.152 49.405 141.137 48.8217 140.18 48.005C139.247 47.1883 138.465 46.0917 137.835 44.715C137.228 43.3383 136.925 41.6117 136.925 39.535V34.495C136.925 32.4183 137.217 30.6917 137.8 29.315C138.407 27.9383 139.177 26.8417 140.11 26.025C141.043 25.185 142.058 24.59 143.155 24.24C144.275 23.89 145.36 23.715 146.41 23.715C147.25 23.715 148.055 23.7383 148.825 23.785C149.618 23.8317 150.342 23.89 150.995 23.96C151.648 24.03 152.232 24.1 152.745 24.17C153.258 24.24 153.655 24.2983 153.935 24.345C154.378 24.4383 154.6 24.6833 154.6 25.08V27.425C154.6 27.6817 154.553 27.8683 154.46 27.985C154.367 28.1017 154.18 28.16 153.9 28.16H153.795C152.978 28.09 151.963 28.0317 150.75 27.985C149.537 27.915 148.09 27.88 146.41 27.88C145.827 27.88 145.255 27.9967 144.695 28.23C144.158 28.44 143.668 28.8017 143.225 29.315C142.805 29.8283 142.467 30.5167 142.21 31.38C141.953 32.22 141.825 33.2583 141.825 34.495V39.535C141.825 40.7717 141.953 41.81 142.21 42.65C142.49 43.49 142.84 44.1667 143.26 44.68C143.703 45.1933 144.193 45.5667 144.73 45.8C145.267 46.01 145.792 46.115 146.305 46.115C146.958 46.115 147.565 46.115 148.125 46.115C148.685 46.0917 149.233 46.0567 149.77 46.01V37.085C149.77 36.8983 149.828 36.735 149.945 36.595C150.085 36.455 150.248 36.385 150.435 36.385H153.9C154.087 36.385 154.25 36.455 154.39 36.595C154.53 36.735 154.6 36.8983 154.6 37.085V48.845ZM164.707 49.3C164.707 49.4867 164.637 49.65 164.497 49.79C164.357 49.93 164.193 50 164.007 50H160.542C160.355 50 160.192 49.93 160.052 49.79C159.912 49.65 159.842 49.4867 159.842 49.3V24.66C159.842 24.4733 159.912 24.3217 160.052 24.205C160.192 24.065 160.355 23.995 160.542 23.995H164.007C164.193 23.995 164.357 24.065 164.497 24.205C164.637 24.3217 164.707 24.4733 164.707 24.66V49.3ZM185.709 42.965C185.709 43.8517 185.557 44.7383 185.254 45.625C184.951 46.4883 184.437 47.27 183.714 47.97C183.014 48.6467 182.069 49.2067 180.879 49.65C179.712 50.07 178.254 50.28 176.504 50.28C175.174 50.28 174.019 50.2217 173.039 50.105C172.059 49.9883 171.149 49.8367 170.309 49.65C170.122 49.6033 169.959 49.5217 169.819 49.405C169.702 49.2883 169.644 49.1367 169.644 48.95V46.43C169.644 46.2433 169.702 46.0917 169.819 45.975C169.959 45.835 170.122 45.765 170.309 45.765H170.379C170.729 45.8117 171.184 45.8583 171.744 45.905C172.327 45.9283 172.922 45.9633 173.529 46.01C174.136 46.0333 174.707 46.0567 175.244 46.08C175.804 46.1033 176.247 46.115 176.574 46.115C178.137 46.115 179.199 45.8467 179.759 45.31C180.342 44.7733 180.634 43.9917 180.634 42.965C180.634 42.615 180.587 42.3117 180.494 42.055C180.401 41.775 180.237 41.5067 180.004 41.25C179.771 40.9933 179.467 40.7367 179.094 40.48C178.721 40.2 178.242 39.885 177.659 39.535L173.039 36.77C172.222 36.28 171.546 35.79 171.009 35.3C170.496 34.81 170.076 34.3083 169.749 33.795C169.446 33.2583 169.224 32.71 169.084 32.15C168.967 31.5667 168.909 30.9717 168.909 30.365C168.909 29.4083 169.061 28.5217 169.364 27.705C169.667 26.8883 170.157 26.1883 170.834 25.605C171.534 24.9983 172.432 24.5317 173.529 24.205C174.649 23.8783 176.026 23.715 177.659 23.715C178.242 23.715 178.861 23.7383 179.514 23.785C180.167 23.8083 180.809 23.855 181.439 23.925C182.069 23.995 182.641 24.065 183.154 24.135C183.667 24.205 184.076 24.275 184.379 24.345C184.566 24.3917 184.717 24.4733 184.834 24.59C184.951 24.6833 185.009 24.8233 185.009 25.01V27.6C185.009 27.7867 184.951 27.9383 184.834 28.055C184.741 28.1717 184.601 28.23 184.414 28.23H184.344C183.177 28.1133 182.022 28.0317 180.879 27.985C179.736 27.915 178.592 27.88 177.449 27.88C176.142 27.88 175.197 28.1017 174.614 28.545C174.054 28.965 173.774 29.5717 173.774 30.365C173.774 30.645 173.809 30.9133 173.879 31.17C173.972 31.4033 174.124 31.6483 174.334 31.905C174.567 32.1383 174.871 32.3833 175.244 32.64C175.617 32.8967 176.084 33.1767 176.644 33.48L180.844 35.825C181.801 36.3617 182.594 36.91 183.224 37.47C183.854 38.0067 184.344 38.5667 184.694 39.15C185.067 39.7333 185.324 40.34 185.464 40.97C185.627 41.6 185.709 42.265 185.709 42.965ZM207.501 24.52C207.501 24.5667 207.477 24.66 207.431 24.8L202.111 36.945C201.784 37.715 201.446 38.2983 201.096 38.695C200.746 39.0683 200.372 39.3367 199.976 39.5V49.3C199.976 49.4867 199.906 49.65 199.766 49.79C199.649 49.93 199.497 50 199.311 50H195.811C195.624 50 195.461 49.93 195.321 49.79C195.204 49.65 195.146 49.4867 195.146 49.3V39.5C194.749 39.3367 194.376 39.0683 194.026 38.695C193.676 38.2983 193.337 37.715 193.011 36.945L187.726 24.8C187.679 24.66 187.656 24.5667 187.656 24.52C187.656 24.38 187.702 24.2633 187.796 24.17C187.889 24.0533 188.029 23.995 188.216 23.995H192.101C192.264 23.995 192.404 24.0533 192.521 24.17C192.637 24.2867 192.719 24.415 192.766 24.555L196.966 34.985C197.082 35.2883 197.187 35.4867 197.281 35.58C197.397 35.65 197.491 35.685 197.561 35.685C197.654 35.685 197.747 35.65 197.841 35.58C197.957 35.4867 198.074 35.2883 198.191 34.985L202.391 24.555C202.437 24.415 202.519 24.2867 202.636 24.17C202.752 24.0533 202.892 23.995 203.056 23.995H206.906C207.092 23.995 207.232 24.0533 207.326 24.17C207.442 24.2633 207.501 24.38 207.501 24.52ZM229.909 49.685C229.909 49.895 229.734 50 229.384 50H224.694C224.32 50 224.052 49.8717 223.889 49.615L215.874 37.68V49.3C215.874 49.4867 215.804 49.65 215.664 49.79C215.524 49.93 215.36 50 215.174 50H211.709C211.522 50 211.359 49.93 211.219 49.79C211.079 49.65 211.009 49.4867 211.009 49.3V24.695C211.009 24.5083 211.079 24.3567 211.219 24.24C211.359 24.1 211.522 24.03 211.709 24.03H215.174C215.36 24.03 215.524 24.1 215.664 24.24C215.804 24.3567 215.874 24.5083 215.874 24.695V35.825L224.449 24.31C224.542 24.1933 224.647 24.1233 224.764 24.1C224.904 24.0533 225.067 24.03 225.254 24.03H229.244C229.687 24.03 229.909 24.17 229.909 24.45C229.909 24.6133 229.827 24.8 229.664 25.01L220.704 36.595L229.734 49.265C229.85 49.4517 229.909 49.5917 229.909 49.685ZM249.956 27.425C249.956 27.6117 249.886 27.7633 249.746 27.88C249.606 27.9967 249.443 28.055 249.256 28.055H243.131V49.3C243.131 49.4867 243.061 49.65 242.921 49.79C242.781 49.93 242.618 50 242.431 50H238.966C238.78 50 238.616 49.93 238.476 49.79C238.336 49.65 238.266 49.4867 238.266 49.3V28.055H232.141C231.955 28.055 231.791 27.9967 231.651 27.88C231.511 27.7633 231.441 27.6117 231.441 27.425V24.66C231.441 24.4733 231.511 24.3217 231.651 24.205C231.791 24.065 231.955 23.995 232.141 23.995H249.256C249.443 23.995 249.606 24.065 249.746 24.205C249.886 24.3217 249.956 24.4733 249.956 24.66V27.425Z" fill="#F24E1E"/>
<path d="M288.1 38.52C288.1 39.4267 287.927 40.28 287.58 41.08C287.233 41.88 286.76 42.58 286.16 43.18C285.56 43.7667 284.853 44.2333 284.04 44.58C283.24 44.9267 282.387 45.1 281.48 45.1C280.573 45.1 279.72 44.9267 278.92 44.58C278.12 44.2333 277.42 43.7667 276.82 43.18C276.233 42.58 275.767 41.88 275.42 41.08C275.073 40.28 274.9 39.4267 274.9 38.52C274.9 37.6133 275.073 36.76 275.42 35.96C275.767 35.1467 276.233 34.44 276.82 33.84C277.42 33.24 278.12 32.7667 278.92 32.42C279.72 32.06 280.573 31.88 281.48 31.88C282.387 31.88 283.24 32.06 284.04 32.42C284.853 32.7667 285.56 33.24 286.16 33.84C286.76 34.44 287.233 35.1467 287.58 35.96C287.927 36.76 288.1 37.6133 288.1 38.52ZM287.12 38.52C287.12 37.7467 286.967 37.02 286.66 36.34C286.367 35.6467 285.967 35.0467 285.46 34.54C284.953 34.02 284.353 33.6133 283.66 33.32C282.98 33.0133 282.253 32.86 281.48 32.86C280.707 32.86 279.98 33.0133 279.3 33.32C278.62 33.6133 278.02 34.02 277.5 34.54C276.993 35.0467 276.593 35.6467 276.3 36.34C276.007 37.02 275.86 37.7467 275.86 38.52C275.86 39.2933 276.007 40.02 276.3 40.7C276.593 41.38 276.993 41.9733 277.5 42.48C278.02 42.9867 278.62 43.3867 279.3 43.68C279.98 43.9733 280.707 44.12 281.48 44.12C282.253 44.12 282.98 43.9733 283.66 43.68C284.353 43.3867 284.953 42.9867 285.46 42.48C285.967 41.9733 286.367 41.38 286.66 40.7C286.967 40.02 287.12 39.2933 287.12 38.52ZM283.54 42.34C283.54 42.4867 283.447 42.58 283.26 42.62C283.1 42.66 282.873 42.7 282.58 42.74C282.3 42.78 281.953 42.8 281.54 42.8C280.553 42.8 279.76 42.5067 279.16 41.92C278.573 41.32 278.28 40.3667 278.28 39.06V37.86C278.28 36.5533 278.573 35.6067 279.16 35.02C279.76 34.42 280.553 34.12 281.54 34.12C281.953 34.12 282.307 34.14 282.6 34.18C282.893 34.22 283.113 34.26 283.26 34.3C283.34 34.3267 283.407 34.3533 283.46 34.38C283.513 34.4067 283.54 34.4667 283.54 34.56V35.54C283.54 35.6467 283.513 35.7133 283.46 35.74C283.407 35.7667 283.347 35.78 283.28 35.78H283.24C283.013 35.7533 282.767 35.7333 282.5 35.72C282.247 35.6933 281.927 35.68 281.54 35.68C281.34 35.68 281.147 35.7133 280.96 35.78C280.773 35.8467 280.607 35.9667 280.46 36.14C280.327 36.3 280.22 36.52 280.14 36.8C280.06 37.08 280.02 37.4333 280.02 37.86V39.06C280.02 39.5 280.06 39.86 280.14 40.14C280.22 40.42 280.327 40.6467 280.46 40.82C280.607 40.98 280.773 41.0933 280.96 41.16C281.147 41.2133 281.34 41.24 281.54 41.24C281.887 41.24 282.2 41.2333 282.48 41.22C282.76 41.1933 283.013 41.1667 283.24 41.14H283.28C283.347 41.14 283.407 41.1533 283.46 41.18C283.513 41.2067 283.54 41.2733 283.54 41.38V42.34ZM305.06 34.64C305.06 35.48 304.847 36.2 304.42 36.8C304.007 37.3867 303.387 37.96 302.56 38.52L300.76 39.72C299.813 40.3467 299.1 40.9533 298.62 41.54C298.153 42.1133 297.92 42.8133 297.92 43.64V43.72H304.5C304.607 43.72 304.7 43.7533 304.78 43.82C304.86 43.8867 304.9 43.9733 304.9 44.08V45.6C304.9 45.7067 304.86 45.8 304.78 45.88C304.7 45.96 304.607 46 304.5 46H296.02C295.913 46 295.82 45.96 295.74 45.88C295.66 45.8 295.62 45.7067 295.62 45.6V43.64C295.62 43.0933 295.7 42.5667 295.86 42.06C296.02 41.54 296.24 41.06 296.52 40.62C296.8 40.1667 297.12 39.7533 297.48 39.38C297.853 39.0067 298.247 38.68 298.66 38.4L300.64 37.08C301.027 36.8267 301.34 36.6067 301.58 36.42C301.82 36.2333 302.007 36.06 302.14 35.9C302.273 35.7267 302.36 35.5467 302.4 35.36C302.453 35.16 302.48 34.92 302.48 34.64C302.48 34.0933 302.3 33.7133 301.94 33.5C301.58 33.2733 300.98 33.16 300.14 33.16C299.847 33.16 299.527 33.1733 299.18 33.2C298.847 33.2133 298.5 33.2333 298.14 33.26C297.793 33.2867 297.447 33.32 297.1 33.36C296.753 33.3867 296.433 33.42 296.14 33.46H296.1C295.993 33.46 295.907 33.42 295.84 33.34C295.773 33.26 295.74 33.1667 295.74 33.06V31.86C295.74 31.7533 295.773 31.6733 295.84 31.62C295.92 31.5533 296.013 31.5067 296.12 31.48C296.373 31.4133 296.667 31.3533 297 31.3C297.333 31.2333 297.673 31.18 298.02 31.14C298.38 31.0867 298.74 31.0467 299.1 31.02C299.473 30.9933 299.82 30.98 300.14 30.98C301.887 30.98 303.14 31.28 303.9 31.88C304.673 32.48 305.06 33.4 305.06 34.64ZM318.118 39.32C318.118 40.56 317.998 41.62 317.758 42.5C317.518 43.3667 317.171 44.0733 316.718 44.62C316.264 45.1533 315.718 45.5467 315.078 45.8C314.438 46.04 313.711 46.16 312.898 46.16C312.084 46.16 311.351 46.04 310.698 45.8C310.058 45.5467 309.511 45.1533 309.058 44.62C308.618 44.0733 308.278 43.3667 308.038 42.5C307.798 41.62 307.678 40.56 307.678 39.32V37.84C307.678 36.6 307.798 35.5467 308.038 34.68C308.278 33.8 308.618 33.0867 309.058 32.54C309.511 31.9933 310.058 31.6 310.698 31.36C311.351 31.1067 312.084 30.98 312.898 30.98C313.711 30.98 314.438 31.1067 315.078 31.36C315.718 31.6 316.264 31.9933 316.718 32.54C317.171 33.0867 317.518 33.8 317.758 34.68C317.998 35.5467 318.118 36.6 318.118 37.84V39.32ZM315.338 37.84C315.338 36.9333 315.271 36.1867 315.138 35.6C315.018 35 314.844 34.5267 314.618 34.18C314.404 33.8333 314.151 33.5933 313.858 33.46C313.564 33.3133 313.244 33.24 312.898 33.24C312.551 33.24 312.231 33.3133 311.938 33.46C311.644 33.5933 311.384 33.8333 311.158 34.18C310.944 34.5267 310.771 35 310.638 35.6C310.518 36.1867 310.458 36.9333 310.458 37.84V39.32C310.458 40.2267 310.518 40.9733 310.638 41.56C310.771 42.1467 310.944 42.6133 311.158 42.96C311.384 43.3067 311.644 43.5533 311.938 43.7C312.231 43.8333 312.551 43.9 312.898 43.9C313.244 43.9 313.564 43.8333 313.858 43.7C314.151 43.5533 314.404 43.3067 314.618 42.96C314.844 42.6133 315.018 42.1467 315.138 41.56C315.271 40.9733 315.338 40.2267 315.338 39.32V37.84ZM330.255 34.64C330.255 35.48 330.042 36.2 329.615 36.8C329.202 37.3867 328.582 37.96 327.755 38.52L325.955 39.72C325.009 40.3467 324.295 40.9533 323.815 41.54C323.349 42.1133 323.115 42.8133 323.115 43.64V43.72H329.695C329.802 43.72 329.895 43.7533 329.975 43.82C330.055 43.8867 330.095 43.9733 330.095 44.08V45.6C330.095 45.7067 330.055 45.8 329.975 45.88C329.895 45.96 329.802 46 329.695 46H321.215C321.109 46 321.015 45.96 320.935 45.88C320.855 45.8 320.815 45.7067 320.815 45.6V43.64C320.815 43.0933 320.895 42.5667 321.055 42.06C321.215 41.54 321.435 41.06 321.715 40.62C321.995 40.1667 322.315 39.7533 322.675 39.38C323.049 39.0067 323.442 38.68 323.855 38.4L325.835 37.08C326.222 36.8267 326.535 36.6067 326.775 36.42C327.015 36.2333 327.202 36.06 327.335 35.9C327.469 35.7267 327.555 35.5467 327.595 35.36C327.649 35.16 327.675 34.92 327.675 34.64C327.675 34.0933 327.495 33.7133 327.135 33.5C326.775 33.2733 326.175 33.16 325.335 33.16C325.042 33.16 324.722 33.1733 324.375 33.2C324.042 33.2133 323.695 33.2333 323.335 33.26C322.989 33.2867 322.642 33.32 322.295 33.36C321.949 33.3867 321.629 33.42 321.335 33.46H321.295C321.189 33.46 321.102 33.42 321.035 33.34C320.969 33.26 320.935 33.1667 320.935 33.06V31.86C320.935 31.7533 320.969 31.6733 321.035 31.62C321.115 31.5533 321.209 31.5067 321.315 31.48C321.569 31.4133 321.862 31.3533 322.195 31.3C322.529 31.2333 322.869 31.18 323.215 31.14C323.575 31.0867 323.935 31.0467 324.295 31.02C324.669 30.9933 325.015 30.98 325.335 30.98C327.082 30.98 328.335 31.28 329.095 31.88C329.869 32.48 330.255 33.4 330.255 34.64ZM342.853 34.64C342.853 35.48 342.64 36.2 342.213 36.8C341.8 37.3867 341.18 37.96 340.353 38.52L338.553 39.72C337.606 40.3467 336.893 40.9533 336.413 41.54C335.946 42.1133 335.713 42.8133 335.713 43.64V43.72H342.293C342.4 43.72 342.493 43.7533 342.573 43.82C342.653 43.8867 342.693 43.9733 342.693 44.08V45.6C342.693 45.7067 342.653 45.8 342.573 45.88C342.493 45.96 342.4 46 342.293 46H333.813C333.706 46 333.613 45.96 333.533 45.88C333.453 45.8 333.413 45.7067 333.413 45.6V43.64C333.413 43.0933 333.493 42.5667 333.653 42.06C333.813 41.54 334.033 41.06 334.313 40.62C334.593 40.1667 334.913 39.7533 335.273 39.38C335.646 39.0067 336.04 38.68 336.453 38.4L338.433 37.08C338.82 36.8267 339.133 36.6067 339.373 36.42C339.613 36.2333 339.8 36.06 339.933 35.9C340.066 35.7267 340.153 35.5467 340.193 35.36C340.246 35.16 340.273 34.92 340.273 34.64C340.273 34.0933 340.093 33.7133 339.733 33.5C339.373 33.2733 338.773 33.16 337.933 33.16C337.64 33.16 337.32 33.1733 336.973 33.2C336.64 33.2133 336.293 33.2333 335.933 33.26C335.586 33.2867 335.24 33.32 334.893 33.36C334.546 33.3867 334.226 33.42 333.933 33.46H333.893C333.786 33.46 333.7 33.42 333.633 33.34C333.566 33.26 333.533 33.1667 333.533 33.06V31.86C333.533 31.7533 333.566 31.6733 333.633 31.62C333.713 31.5533 333.806 31.5067 333.913 31.48C334.166 31.4133 334.46 31.3533 334.793 31.3C335.126 31.2333 335.466 31.18 335.813 31.14C336.173 31.0867 336.533 31.0467 336.893 31.02C337.266 30.9933 337.613 30.98 337.933 30.98C339.68 30.98 340.933 31.28 341.693 31.88C342.466 32.48 342.853 33.4 342.853 34.64Z" fill="white" fill-opacity="0.6"/>
<rect x="263" y="9" width="1" height="56" fill="#F24E1E"/>
</svg>
